<mxfile host="app.diagrams.net" modified="2023-05-19T21:24:18.103Z" agent="Mozilla/5.0 (Windows NT 10.0; Win64; x64) AppleWebKit/537.36 (KHTML, like Gecko) Chrome/113.0.0.0 Safari/537.36" etag="j4l1BZvlbBhYThdi6B3w" version="21.3.2" type="device">
  <diagram name="Halaman-1" id="rEhybxDb6TIfCzU0UJuk">
    <mxGraphModel dx="2417" dy="960" grid="1" gridSize="10" guides="1" tooltips="1" connect="1" arrows="1" fold="1" page="1" pageScale="1" pageWidth="827" pageHeight="1169" math="0" shadow="0">
      <root>
        <mxCell id="0" />
        <mxCell id="1" parent="0" />
        <mxCell id="_os8I4X1cZ1uzn5WCL8z-147" style="edgeStyle=orthogonalEdgeStyle;rounded=0;orthogonalLoop=1;jettySize=auto;html=1;" parent="1" source="_os8I4X1cZ1uzn5WCL8z-61" target="_os8I4X1cZ1uzn5WCL8z-104" edge="1">
          <mxGeometry relative="1" as="geometry" />
        </mxCell>
        <mxCell id="_os8I4X1cZ1uzn5WCL8z-205" style="edgeStyle=orthogonalEdgeStyle;rounded=0;orthogonalLoop=1;jettySize=auto;html=1;" parent="1" source="_os8I4X1cZ1uzn5WCL8z-61" target="_os8I4X1cZ1uzn5WCL8z-181" edge="1">
          <mxGeometry relative="1" as="geometry">
            <Array as="points">
              <mxPoint x="-180" y="464" />
              <mxPoint x="-180" y="464" />
            </Array>
          </mxGeometry>
        </mxCell>
        <mxCell id="_os8I4X1cZ1uzn5WCL8z-213" style="edgeStyle=orthogonalEdgeStyle;rounded=0;orthogonalLoop=1;jettySize=auto;html=1;entryX=0.5;entryY=1;entryDx=0;entryDy=0;" parent="1" source="_os8I4X1cZ1uzn5WCL8z-61" target="_os8I4X1cZ1uzn5WCL8z-183" edge="1">
          <mxGeometry relative="1" as="geometry" />
        </mxCell>
        <mxCell id="_os8I4X1cZ1uzn5WCL8z-231" style="edgeStyle=orthogonalEdgeStyle;rounded=0;orthogonalLoop=1;jettySize=auto;html=1;entryX=1;entryY=0.5;entryDx=0;entryDy=0;" parent="1" source="_os8I4X1cZ1uzn5WCL8z-61" target="_os8I4X1cZ1uzn5WCL8z-96" edge="1">
          <mxGeometry relative="1" as="geometry">
            <Array as="points">
              <mxPoint x="-500" y="480" />
              <mxPoint x="-500" y="811" />
            </Array>
          </mxGeometry>
        </mxCell>
        <mxCell id="_os8I4X1cZ1uzn5WCL8z-61" value="User" style="swimlane;fontStyle=0;childLayout=stackLayout;horizontal=1;startSize=26;fillColor=none;horizontalStack=0;resizeParent=1;resizeParentMax=0;resizeLast=0;collapsible=1;marginBottom=0;whiteSpace=wrap;html=1;" parent="1" vertex="1">
          <mxGeometry x="-370" y="386" width="140" height="130" as="geometry" />
        </mxCell>
        <mxCell id="_os8I4X1cZ1uzn5WCL8z-62" value="+ id : str" style="text;strokeColor=none;fillColor=none;align=left;verticalAlign=top;spacingLeft=4;spacingRight=4;overflow=hidden;rotatable=0;points=[[0,0.5],[1,0.5]];portConstraint=eastwest;whiteSpace=wrap;html=1;" parent="_os8I4X1cZ1uzn5WCL8z-61" vertex="1">
          <mxGeometry y="26" width="140" height="26" as="geometry" />
        </mxCell>
        <mxCell id="_os8I4X1cZ1uzn5WCL8z-63" value="+ name : str" style="text;strokeColor=none;fillColor=none;align=left;verticalAlign=top;spacingLeft=4;spacingRight=4;overflow=hidden;rotatable=0;points=[[0,0.5],[1,0.5]];portConstraint=eastwest;whiteSpace=wrap;html=1;" parent="_os8I4X1cZ1uzn5WCL8z-61" vertex="1">
          <mxGeometry y="52" width="140" height="26" as="geometry" />
        </mxCell>
        <mxCell id="_os8I4X1cZ1uzn5WCL8z-64" value="+ email : str&amp;nbsp;" style="text;strokeColor=none;fillColor=none;align=left;verticalAlign=top;spacingLeft=4;spacingRight=4;overflow=hidden;rotatable=0;points=[[0,0.5],[1,0.5]];portConstraint=eastwest;whiteSpace=wrap;html=1;" parent="_os8I4X1cZ1uzn5WCL8z-61" vertex="1">
          <mxGeometry y="78" width="140" height="26" as="geometry" />
        </mxCell>
        <mxCell id="_os8I4X1cZ1uzn5WCL8z-67" value="+ birthday : date&amp;nbsp;" style="text;strokeColor=none;fillColor=none;align=left;verticalAlign=top;spacingLeft=4;spacingRight=4;overflow=hidden;rotatable=0;points=[[0,0.5],[1,0.5]];portConstraint=eastwest;whiteSpace=wrap;html=1;" parent="_os8I4X1cZ1uzn5WCL8z-61" vertex="1">
          <mxGeometry y="104" width="140" height="26" as="geometry" />
        </mxCell>
        <mxCell id="_os8I4X1cZ1uzn5WCL8z-193" style="edgeStyle=orthogonalEdgeStyle;rounded=0;orthogonalLoop=1;jettySize=auto;html=1;entryX=-0.007;entryY=-0.125;entryDx=0;entryDy=0;entryPerimeter=0;" parent="1" source="_os8I4X1cZ1uzn5WCL8z-68" target="_os8I4X1cZ1uzn5WCL8z-164" edge="1">
          <mxGeometry relative="1" as="geometry" />
        </mxCell>
        <mxCell id="_os8I4X1cZ1uzn5WCL8z-197" style="edgeStyle=orthogonalEdgeStyle;rounded=0;orthogonalLoop=1;jettySize=auto;html=1;entryX=1.029;entryY=0.132;entryDx=0;entryDy=0;entryPerimeter=0;" parent="1" source="_os8I4X1cZ1uzn5WCL8z-68" target="_os8I4X1cZ1uzn5WCL8z-169" edge="1">
          <mxGeometry relative="1" as="geometry" />
        </mxCell>
        <mxCell id="_os8I4X1cZ1uzn5WCL8z-201" style="edgeStyle=orthogonalEdgeStyle;rounded=0;orthogonalLoop=1;jettySize=auto;html=1;" parent="1" source="_os8I4X1cZ1uzn5WCL8z-68" target="_os8I4X1cZ1uzn5WCL8z-175" edge="1">
          <mxGeometry relative="1" as="geometry" />
        </mxCell>
        <mxCell id="_os8I4X1cZ1uzn5WCL8z-206" style="edgeStyle=orthogonalEdgeStyle;rounded=0;orthogonalLoop=1;jettySize=auto;html=1;entryX=1;entryY=0.5;entryDx=0;entryDy=0;" parent="1" source="_os8I4X1cZ1uzn5WCL8z-68" target="_os8I4X1cZ1uzn5WCL8z-181" edge="1">
          <mxGeometry relative="1" as="geometry" />
        </mxCell>
        <mxCell id="_os8I4X1cZ1uzn5WCL8z-68" value="Artists" style="swimlane;fontStyle=0;childLayout=stackLayout;horizontal=1;startSize=26;fillColor=none;horizontalStack=0;resizeParent=1;resizeParentMax=0;resizeLast=0;collapsible=1;marginBottom=0;whiteSpace=wrap;html=1;" parent="1" vertex="1">
          <mxGeometry x="220" y="360" width="140" height="208" as="geometry" />
        </mxCell>
        <mxCell id="_os8I4X1cZ1uzn5WCL8z-69" value="+ id : str" style="text;strokeColor=none;fillColor=none;align=left;verticalAlign=top;spacingLeft=4;spacingRight=4;overflow=hidden;rotatable=0;points=[[0,0.5],[1,0.5]];portConstraint=eastwest;whiteSpace=wrap;html=1;" parent="_os8I4X1cZ1uzn5WCL8z-68" vertex="1">
          <mxGeometry y="26" width="140" height="26" as="geometry" />
        </mxCell>
        <mxCell id="_os8I4X1cZ1uzn5WCL8z-70" value="+ name : str" style="text;strokeColor=none;fillColor=none;align=left;verticalAlign=top;spacingLeft=4;spacingRight=4;overflow=hidden;rotatable=0;points=[[0,0.5],[1,0.5]];portConstraint=eastwest;whiteSpace=wrap;html=1;" parent="_os8I4X1cZ1uzn5WCL8z-68" vertex="1">
          <mxGeometry y="52" width="140" height="26" as="geometry" />
        </mxCell>
        <mxCell id="_os8I4X1cZ1uzn5WCL8z-71" value="+ instagram : str" style="text;strokeColor=none;fillColor=none;align=left;verticalAlign=top;spacingLeft=4;spacingRight=4;overflow=hidden;rotatable=0;points=[[0,0.5],[1,0.5]];portConstraint=eastwest;whiteSpace=wrap;html=1;" parent="_os8I4X1cZ1uzn5WCL8z-68" vertex="1">
          <mxGeometry y="78" width="140" height="26" as="geometry" />
        </mxCell>
        <mxCell id="_os8I4X1cZ1uzn5WCL8z-72" value="+ facebook : str" style="text;strokeColor=none;fillColor=none;align=left;verticalAlign=top;spacingLeft=4;spacingRight=4;overflow=hidden;rotatable=0;points=[[0,0.5],[1,0.5]];portConstraint=eastwest;whiteSpace=wrap;html=1;" parent="_os8I4X1cZ1uzn5WCL8z-68" vertex="1">
          <mxGeometry y="104" width="140" height="26" as="geometry" />
        </mxCell>
        <mxCell id="_os8I4X1cZ1uzn5WCL8z-73" value="+ twitter : str" style="text;strokeColor=none;fillColor=none;align=left;verticalAlign=top;spacingLeft=4;spacingRight=4;overflow=hidden;rotatable=0;points=[[0,0.5],[1,0.5]];portConstraint=eastwest;whiteSpace=wrap;html=1;" parent="_os8I4X1cZ1uzn5WCL8z-68" vertex="1">
          <mxGeometry y="130" width="140" height="26" as="geometry" />
        </mxCell>
        <mxCell id="_os8I4X1cZ1uzn5WCL8z-74" value="+ wikipedia : str" style="text;strokeColor=none;fillColor=none;align=left;verticalAlign=top;spacingLeft=4;spacingRight=4;overflow=hidden;rotatable=0;points=[[0,0.5],[1,0.5]];portConstraint=eastwest;whiteSpace=wrap;html=1;" parent="_os8I4X1cZ1uzn5WCL8z-68" vertex="1">
          <mxGeometry y="156" width="140" height="26" as="geometry" />
        </mxCell>
        <mxCell id="_os8I4X1cZ1uzn5WCL8z-76" value="+ bio : text" style="text;strokeColor=none;fillColor=none;align=left;verticalAlign=top;spacingLeft=4;spacingRight=4;overflow=hidden;rotatable=0;points=[[0,0.5],[1,0.5]];portConstraint=eastwest;whiteSpace=wrap;html=1;" parent="_os8I4X1cZ1uzn5WCL8z-68" vertex="1">
          <mxGeometry y="182" width="140" height="26" as="geometry" />
        </mxCell>
        <mxCell id="_os8I4X1cZ1uzn5WCL8z-150" style="edgeStyle=orthogonalEdgeStyle;rounded=0;orthogonalLoop=1;jettySize=auto;html=1;exitX=1;exitY=0.5;exitDx=0;exitDy=0;" parent="1" source="_os8I4X1cZ1uzn5WCL8z-79" target="_os8I4X1cZ1uzn5WCL8z-82" edge="1">
          <mxGeometry relative="1" as="geometry">
            <Array as="points">
              <mxPoint x="570" y="105" />
            </Array>
          </mxGeometry>
        </mxCell>
        <mxCell id="_os8I4X1cZ1uzn5WCL8z-196" style="edgeStyle=orthogonalEdgeStyle;rounded=0;orthogonalLoop=1;jettySize=auto;html=1;" parent="1" source="_os8I4X1cZ1uzn5WCL8z-77" target="_os8I4X1cZ1uzn5WCL8z-168" edge="1">
          <mxGeometry relative="1" as="geometry" />
        </mxCell>
        <mxCell id="_os8I4X1cZ1uzn5WCL8z-210" style="edgeStyle=orthogonalEdgeStyle;rounded=0;orthogonalLoop=1;jettySize=auto;html=1;entryX=0.5;entryY=0;entryDx=0;entryDy=0;" parent="1" source="_os8I4X1cZ1uzn5WCL8z-77" target="_os8I4X1cZ1uzn5WCL8z-171" edge="1">
          <mxGeometry relative="1" as="geometry">
            <Array as="points">
              <mxPoint x="-30" y="10" />
              <mxPoint x="-730" y="10" />
            </Array>
          </mxGeometry>
        </mxCell>
        <mxCell id="_os8I4X1cZ1uzn5WCL8z-214" style="edgeStyle=orthogonalEdgeStyle;rounded=0;orthogonalLoop=1;jettySize=auto;html=1;entryX=0.5;entryY=0;entryDx=0;entryDy=0;" parent="1" source="_os8I4X1cZ1uzn5WCL8z-77" target="_os8I4X1cZ1uzn5WCL8z-183" edge="1">
          <mxGeometry relative="1" as="geometry" />
        </mxCell>
        <mxCell id="_os8I4X1cZ1uzn5WCL8z-77" value="Song" style="swimlane;fontStyle=0;childLayout=stackLayout;horizontal=1;startSize=26;fillColor=none;horizontalStack=0;resizeParent=1;resizeParentMax=0;resizeLast=0;collapsible=1;marginBottom=0;whiteSpace=wrap;html=1;" parent="1" vertex="1">
          <mxGeometry x="-100" y="40" width="140" height="130" as="geometry" />
        </mxCell>
        <mxCell id="_os8I4X1cZ1uzn5WCL8z-78" value="+ id : str" style="text;strokeColor=none;fillColor=none;align=left;verticalAlign=top;spacingLeft=4;spacingRight=4;overflow=hidden;rotatable=0;points=[[0,0.5],[1,0.5]];portConstraint=eastwest;whiteSpace=wrap;html=1;" parent="_os8I4X1cZ1uzn5WCL8z-77" vertex="1">
          <mxGeometry y="26" width="140" height="26" as="geometry" />
        </mxCell>
        <mxCell id="_os8I4X1cZ1uzn5WCL8z-79" value="+ album_id : str" style="text;strokeColor=none;fillColor=none;align=left;verticalAlign=top;spacingLeft=4;spacingRight=4;overflow=hidden;rotatable=0;points=[[0,0.5],[1,0.5]];portConstraint=eastwest;whiteSpace=wrap;html=1;" parent="_os8I4X1cZ1uzn5WCL8z-77" vertex="1">
          <mxGeometry y="52" width="140" height="26" as="geometry" />
        </mxCell>
        <mxCell id="_os8I4X1cZ1uzn5WCL8z-80" value="+ title : str" style="text;strokeColor=none;fillColor=none;align=left;verticalAlign=top;spacingLeft=4;spacingRight=4;overflow=hidden;rotatable=0;points=[[0,0.5],[1,0.5]];portConstraint=eastwest;whiteSpace=wrap;html=1;" parent="_os8I4X1cZ1uzn5WCL8z-77" vertex="1">
          <mxGeometry y="78" width="140" height="26" as="geometry" />
        </mxCell>
        <mxCell id="_os8I4X1cZ1uzn5WCL8z-81" value="+ duration : time" style="text;strokeColor=none;fillColor=none;align=left;verticalAlign=top;spacingLeft=4;spacingRight=4;overflow=hidden;rotatable=0;points=[[0,0.5],[1,0.5]];portConstraint=eastwest;whiteSpace=wrap;html=1;" parent="_os8I4X1cZ1uzn5WCL8z-77" vertex="1">
          <mxGeometry y="104" width="140" height="26" as="geometry" />
        </mxCell>
        <mxCell id="_os8I4X1cZ1uzn5WCL8z-211" style="edgeStyle=orthogonalEdgeStyle;rounded=0;orthogonalLoop=1;jettySize=auto;html=1;entryX=0.5;entryY=0;entryDx=0;entryDy=0;" parent="1" source="_os8I4X1cZ1uzn5WCL8z-82" target="_os8I4X1cZ1uzn5WCL8z-162" edge="1">
          <mxGeometry relative="1" as="geometry" />
        </mxCell>
        <mxCell id="_os8I4X1cZ1uzn5WCL8z-82" value="Album" style="swimlane;fontStyle=0;childLayout=stackLayout;horizontal=1;startSize=26;fillColor=none;horizontalStack=0;resizeParent=1;resizeParentMax=0;resizeLast=0;collapsible=1;marginBottom=0;whiteSpace=wrap;html=1;" parent="1" vertex="1">
          <mxGeometry x="500" y="256" width="140" height="130" as="geometry" />
        </mxCell>
        <mxCell id="_os8I4X1cZ1uzn5WCL8z-83" value="+ id : str" style="text;strokeColor=none;fillColor=none;align=left;verticalAlign=top;spacingLeft=4;spacingRight=4;overflow=hidden;rotatable=0;points=[[0,0.5],[1,0.5]];portConstraint=eastwest;whiteSpace=wrap;html=1;" parent="_os8I4X1cZ1uzn5WCL8z-82" vertex="1">
          <mxGeometry y="26" width="140" height="26" as="geometry" />
        </mxCell>
        <mxCell id="_os8I4X1cZ1uzn5WCL8z-84" value="+ title : str" style="text;strokeColor=none;fillColor=none;align=left;verticalAlign=top;spacingLeft=4;spacingRight=4;overflow=hidden;rotatable=0;points=[[0,0.5],[1,0.5]];portConstraint=eastwest;whiteSpace=wrap;html=1;" parent="_os8I4X1cZ1uzn5WCL8z-82" vertex="1">
          <mxGeometry y="52" width="140" height="26" as="geometry" />
        </mxCell>
        <mxCell id="_os8I4X1cZ1uzn5WCL8z-85" value="+ release_at : year" style="text;strokeColor=none;fillColor=none;align=left;verticalAlign=top;spacingLeft=4;spacingRight=4;overflow=hidden;rotatable=0;points=[[0,0.5],[1,0.5]];portConstraint=eastwest;whiteSpace=wrap;html=1;" parent="_os8I4X1cZ1uzn5WCL8z-82" vertex="1">
          <mxGeometry y="78" width="140" height="26" as="geometry" />
        </mxCell>
        <mxCell id="_os8I4X1cZ1uzn5WCL8z-86" value="+ image : str" style="text;strokeColor=none;fillColor=none;align=left;verticalAlign=top;spacingLeft=4;spacingRight=4;overflow=hidden;rotatable=0;points=[[0,0.5],[1,0.5]];portConstraint=eastwest;whiteSpace=wrap;html=1;" parent="_os8I4X1cZ1uzn5WCL8z-82" vertex="1">
          <mxGeometry y="104" width="140" height="26" as="geometry" />
        </mxCell>
        <mxCell id="_os8I4X1cZ1uzn5WCL8z-87" value="PlaylistCategory" style="swimlane;fontStyle=0;childLayout=stackLayout;horizontal=1;startSize=26;fillColor=none;horizontalStack=0;resizeParent=1;resizeParentMax=0;resizeLast=0;collapsible=1;marginBottom=0;whiteSpace=wrap;html=1;" parent="1" vertex="1">
          <mxGeometry x="-684" y="1000" width="140" height="130" as="geometry" />
        </mxCell>
        <mxCell id="_os8I4X1cZ1uzn5WCL8z-88" value="+ id : str" style="text;strokeColor=none;fillColor=none;align=left;verticalAlign=top;spacingLeft=4;spacingRight=4;overflow=hidden;rotatable=0;points=[[0,0.5],[1,0.5]];portConstraint=eastwest;whiteSpace=wrap;html=1;" parent="_os8I4X1cZ1uzn5WCL8z-87" vertex="1">
          <mxGeometry y="26" width="140" height="26" as="geometry" />
        </mxCell>
        <mxCell id="_os8I4X1cZ1uzn5WCL8z-89" value="+ name : str" style="text;strokeColor=none;fillColor=none;align=left;verticalAlign=top;spacingLeft=4;spacingRight=4;overflow=hidden;rotatable=0;points=[[0,0.5],[1,0.5]];portConstraint=eastwest;whiteSpace=wrap;html=1;" parent="_os8I4X1cZ1uzn5WCL8z-87" vertex="1">
          <mxGeometry y="52" width="140" height="26" as="geometry" />
        </mxCell>
        <mxCell id="_os8I4X1cZ1uzn5WCL8z-90" value="+ image : str" style="text;strokeColor=none;fillColor=none;align=left;verticalAlign=top;spacingLeft=4;spacingRight=4;overflow=hidden;rotatable=0;points=[[0,0.5],[1,0.5]];portConstraint=eastwest;whiteSpace=wrap;html=1;" parent="_os8I4X1cZ1uzn5WCL8z-87" vertex="1">
          <mxGeometry y="78" width="140" height="26" as="geometry" />
        </mxCell>
        <mxCell id="_os8I4X1cZ1uzn5WCL8z-91" value="+ icon : str" style="text;strokeColor=none;fillColor=none;align=left;verticalAlign=top;spacingLeft=4;spacingRight=4;overflow=hidden;rotatable=0;points=[[0,0.5],[1,0.5]];portConstraint=eastwest;whiteSpace=wrap;html=1;" parent="_os8I4X1cZ1uzn5WCL8z-87" vertex="1">
          <mxGeometry y="104" width="140" height="26" as="geometry" />
        </mxCell>
        <mxCell id="_os8I4X1cZ1uzn5WCL8z-156" style="edgeStyle=orthogonalEdgeStyle;rounded=0;orthogonalLoop=1;jettySize=auto;html=1;" parent="1" source="_os8I4X1cZ1uzn5WCL8z-92" target="_os8I4X1cZ1uzn5WCL8z-87" edge="1">
          <mxGeometry relative="1" as="geometry" />
        </mxCell>
        <mxCell id="_os8I4X1cZ1uzn5WCL8z-199" style="edgeStyle=orthogonalEdgeStyle;rounded=0;orthogonalLoop=1;jettySize=auto;html=1;entryX=0.508;entryY=0.996;entryDx=0;entryDy=0;entryPerimeter=0;" parent="1" source="_os8I4X1cZ1uzn5WCL8z-92" target="_os8I4X1cZ1uzn5WCL8z-174" edge="1">
          <mxGeometry relative="1" as="geometry">
            <mxPoint x="-740" y="250" as="targetPoint" />
            <Array as="points">
              <mxPoint x="-729" y="811" />
              <mxPoint x="-729" y="250" />
            </Array>
          </mxGeometry>
        </mxCell>
        <mxCell id="_os8I4X1cZ1uzn5WCL8z-216" style="edgeStyle=orthogonalEdgeStyle;rounded=0;orthogonalLoop=1;jettySize=auto;html=1;entryX=0.5;entryY=1;entryDx=0;entryDy=0;" parent="1" source="_os8I4X1cZ1uzn5WCL8z-92" target="_os8I4X1cZ1uzn5WCL8z-187" edge="1">
          <mxGeometry relative="1" as="geometry" />
        </mxCell>
        <mxCell id="_os8I4X1cZ1uzn5WCL8z-92" value="Playlist" style="swimlane;fontStyle=0;childLayout=stackLayout;horizontal=1;startSize=26;fillColor=none;horizontalStack=0;resizeParent=1;resizeParentMax=0;resizeLast=0;collapsible=1;marginBottom=0;whiteSpace=wrap;html=1;" parent="1" vertex="1">
          <mxGeometry x="-696" y="720" width="164" height="182" as="geometry" />
        </mxCell>
        <mxCell id="_os8I4X1cZ1uzn5WCL8z-93" value="+ id : str" style="text;strokeColor=none;fillColor=none;align=left;verticalAlign=top;spacingLeft=4;spacingRight=4;overflow=hidden;rotatable=0;points=[[0,0.5],[1,0.5]];portConstraint=eastwest;whiteSpace=wrap;html=1;" parent="_os8I4X1cZ1uzn5WCL8z-92" vertex="1">
          <mxGeometry y="26" width="164" height="26" as="geometry" />
        </mxCell>
        <mxCell id="_os8I4X1cZ1uzn5WCL8z-94" value="+ name : str" style="text;strokeColor=none;fillColor=none;align=left;verticalAlign=top;spacingLeft=4;spacingRight=4;overflow=hidden;rotatable=0;points=[[0,0.5],[1,0.5]];portConstraint=eastwest;whiteSpace=wrap;html=1;" parent="_os8I4X1cZ1uzn5WCL8z-92" vertex="1">
          <mxGeometry y="52" width="164" height="26" as="geometry" />
        </mxCell>
        <mxCell id="_os8I4X1cZ1uzn5WCL8z-96" value="+ description : text" style="text;strokeColor=none;fillColor=none;align=left;verticalAlign=top;spacingLeft=4;spacingRight=4;overflow=hidden;rotatable=0;points=[[0,0.5],[1,0.5]];portConstraint=eastwest;whiteSpace=wrap;html=1;" parent="_os8I4X1cZ1uzn5WCL8z-92" vertex="1">
          <mxGeometry y="78" width="164" height="26" as="geometry" />
        </mxCell>
        <mxCell id="_os8I4X1cZ1uzn5WCL8z-95" value="+ image : str" style="text;strokeColor=none;fillColor=none;align=left;verticalAlign=top;spacingLeft=4;spacingRight=4;overflow=hidden;rotatable=0;points=[[0,0.5],[1,0.5]];portConstraint=eastwest;whiteSpace=wrap;html=1;" parent="_os8I4X1cZ1uzn5WCL8z-92" vertex="1">
          <mxGeometry y="104" width="164" height="26" as="geometry" />
        </mxCell>
        <mxCell id="_os8I4X1cZ1uzn5WCL8z-97" value="+ playlist_category_id : str" style="text;strokeColor=none;fillColor=none;align=left;verticalAlign=top;spacingLeft=4;spacingRight=4;overflow=hidden;rotatable=0;points=[[0,0.5],[1,0.5]];portConstraint=eastwest;whiteSpace=wrap;html=1;" parent="_os8I4X1cZ1uzn5WCL8z-92" vertex="1">
          <mxGeometry y="130" width="164" height="26" as="geometry" />
        </mxCell>
        <mxCell id="_os8I4X1cZ1uzn5WCL8z-98" value="+ user_id : str" style="text;strokeColor=none;fillColor=none;align=left;verticalAlign=top;spacingLeft=4;spacingRight=4;overflow=hidden;rotatable=0;points=[[0,0.5],[1,0.5]];portConstraint=eastwest;whiteSpace=wrap;html=1;" parent="_os8I4X1cZ1uzn5WCL8z-92" vertex="1">
          <mxGeometry y="156" width="164" height="26" as="geometry" />
        </mxCell>
        <mxCell id="_os8I4X1cZ1uzn5WCL8z-99" value="PodcastCategory" style="swimlane;fontStyle=0;childLayout=stackLayout;horizontal=1;startSize=26;fillColor=none;horizontalStack=0;resizeParent=1;resizeParentMax=0;resizeLast=0;collapsible=1;marginBottom=0;whiteSpace=wrap;html=1;" parent="1" vertex="1">
          <mxGeometry x="-164" y="737" width="140" height="130" as="geometry" />
        </mxCell>
        <mxCell id="_os8I4X1cZ1uzn5WCL8z-100" value="+ id : str" style="text;strokeColor=none;fillColor=none;align=left;verticalAlign=top;spacingLeft=4;spacingRight=4;overflow=hidden;rotatable=0;points=[[0,0.5],[1,0.5]];portConstraint=eastwest;whiteSpace=wrap;html=1;" parent="_os8I4X1cZ1uzn5WCL8z-99" vertex="1">
          <mxGeometry y="26" width="140" height="26" as="geometry" />
        </mxCell>
        <mxCell id="_os8I4X1cZ1uzn5WCL8z-101" value="+ name : str" style="text;strokeColor=none;fillColor=none;align=left;verticalAlign=top;spacingLeft=4;spacingRight=4;overflow=hidden;rotatable=0;points=[[0,0.5],[1,0.5]];portConstraint=eastwest;whiteSpace=wrap;html=1;" parent="_os8I4X1cZ1uzn5WCL8z-99" vertex="1">
          <mxGeometry y="52" width="140" height="26" as="geometry" />
        </mxCell>
        <mxCell id="_os8I4X1cZ1uzn5WCL8z-102" value="+ image : str" style="text;strokeColor=none;fillColor=none;align=left;verticalAlign=top;spacingLeft=4;spacingRight=4;overflow=hidden;rotatable=0;points=[[0,0.5],[1,0.5]];portConstraint=eastwest;whiteSpace=wrap;html=1;" parent="_os8I4X1cZ1uzn5WCL8z-99" vertex="1">
          <mxGeometry y="78" width="140" height="26" as="geometry" />
        </mxCell>
        <mxCell id="_os8I4X1cZ1uzn5WCL8z-103" value="+ icon : str" style="text;strokeColor=none;fillColor=none;align=left;verticalAlign=top;spacingLeft=4;spacingRight=4;overflow=hidden;rotatable=0;points=[[0,0.5],[1,0.5]];portConstraint=eastwest;whiteSpace=wrap;html=1;" parent="_os8I4X1cZ1uzn5WCL8z-99" vertex="1">
          <mxGeometry y="104" width="140" height="26" as="geometry" />
        </mxCell>
        <mxCell id="_os8I4X1cZ1uzn5WCL8z-138" style="edgeStyle=orthogonalEdgeStyle;rounded=0;orthogonalLoop=1;jettySize=auto;html=1;" parent="1" source="_os8I4X1cZ1uzn5WCL8z-104" target="_os8I4X1cZ1uzn5WCL8z-111" edge="1">
          <mxGeometry relative="1" as="geometry" />
        </mxCell>
        <mxCell id="_os8I4X1cZ1uzn5WCL8z-139" style="edgeStyle=orthogonalEdgeStyle;rounded=0;orthogonalLoop=1;jettySize=auto;html=1;" parent="1" source="_os8I4X1cZ1uzn5WCL8z-104" target="_os8I4X1cZ1uzn5WCL8z-101" edge="1">
          <mxGeometry relative="1" as="geometry" />
        </mxCell>
        <mxCell id="_os8I4X1cZ1uzn5WCL8z-104" value="Podcast" style="swimlane;fontStyle=0;childLayout=stackLayout;horizontal=1;startSize=26;fillColor=none;horizontalStack=0;resizeParent=1;resizeParentMax=0;resizeLast=0;collapsible=1;marginBottom=0;whiteSpace=wrap;html=1;" parent="1" vertex="1">
          <mxGeometry x="-427" y="710" width="166" height="184" as="geometry" />
        </mxCell>
        <mxCell id="_os8I4X1cZ1uzn5WCL8z-105" value="+ id : str" style="text;strokeColor=none;fillColor=none;align=left;verticalAlign=top;spacingLeft=4;spacingRight=4;overflow=hidden;rotatable=0;points=[[0,0.5],[1,0.5]];portConstraint=eastwest;whiteSpace=wrap;html=1;" parent="_os8I4X1cZ1uzn5WCL8z-104" vertex="1">
          <mxGeometry y="26" width="166" height="26" as="geometry" />
        </mxCell>
        <mxCell id="_os8I4X1cZ1uzn5WCL8z-106" value="+ name : str" style="text;strokeColor=none;fillColor=none;align=left;verticalAlign=top;spacingLeft=4;spacingRight=4;overflow=hidden;rotatable=0;points=[[0,0.5],[1,0.5]];portConstraint=eastwest;whiteSpace=wrap;html=1;" parent="_os8I4X1cZ1uzn5WCL8z-104" vertex="1">
          <mxGeometry y="52" width="166" height="28" as="geometry" />
        </mxCell>
        <mxCell id="_os8I4X1cZ1uzn5WCL8z-107" value="+ about : text" style="text;strokeColor=none;fillColor=none;align=left;verticalAlign=top;spacingLeft=4;spacingRight=4;overflow=hidden;rotatable=0;points=[[0,0.5],[1,0.5]];portConstraint=eastwest;whiteSpace=wrap;html=1;" parent="_os8I4X1cZ1uzn5WCL8z-104" vertex="1">
          <mxGeometry y="80" width="166" height="26" as="geometry" />
        </mxCell>
        <mxCell id="_os8I4X1cZ1uzn5WCL8z-108" value="+ image : str" style="text;strokeColor=none;fillColor=none;align=left;verticalAlign=top;spacingLeft=4;spacingRight=4;overflow=hidden;rotatable=0;points=[[0,0.5],[1,0.5]];portConstraint=eastwest;whiteSpace=wrap;html=1;" parent="_os8I4X1cZ1uzn5WCL8z-104" vertex="1">
          <mxGeometry y="106" width="166" height="26" as="geometry" />
        </mxCell>
        <mxCell id="_os8I4X1cZ1uzn5WCL8z-109" value="+ podcast_category_id : str" style="text;strokeColor=none;fillColor=none;align=left;verticalAlign=top;spacingLeft=4;spacingRight=4;overflow=hidden;rotatable=0;points=[[0,0.5],[1,0.5]];portConstraint=eastwest;whiteSpace=wrap;html=1;" parent="_os8I4X1cZ1uzn5WCL8z-104" vertex="1">
          <mxGeometry y="132" width="166" height="26" as="geometry" />
        </mxCell>
        <mxCell id="_os8I4X1cZ1uzn5WCL8z-110" value="+ user_id : str" style="text;strokeColor=none;fillColor=none;align=left;verticalAlign=top;spacingLeft=4;spacingRight=4;overflow=hidden;rotatable=0;points=[[0,0.5],[1,0.5]];portConstraint=eastwest;whiteSpace=wrap;html=1;" parent="_os8I4X1cZ1uzn5WCL8z-104" vertex="1">
          <mxGeometry y="158" width="166" height="26" as="geometry" />
        </mxCell>
        <mxCell id="_os8I4X1cZ1uzn5WCL8z-111" value="Episode" style="swimlane;fontStyle=0;childLayout=stackLayout;horizontal=1;startSize=26;fillColor=none;horizontalStack=0;resizeParent=1;resizeParentMax=0;resizeLast=0;collapsible=1;marginBottom=0;whiteSpace=wrap;html=1;" parent="1" vertex="1">
          <mxGeometry x="-414" y="980" width="140" height="182" as="geometry" />
        </mxCell>
        <mxCell id="_os8I4X1cZ1uzn5WCL8z-112" value="+ id : str" style="text;strokeColor=none;fillColor=none;align=left;verticalAlign=top;spacingLeft=4;spacingRight=4;overflow=hidden;rotatable=0;points=[[0,0.5],[1,0.5]];portConstraint=eastwest;whiteSpace=wrap;html=1;" parent="_os8I4X1cZ1uzn5WCL8z-111" vertex="1">
          <mxGeometry y="26" width="140" height="26" as="geometry" />
        </mxCell>
        <mxCell id="_os8I4X1cZ1uzn5WCL8z-113" value="+ podcast_id : str" style="text;strokeColor=none;fillColor=none;align=left;verticalAlign=top;spacingLeft=4;spacingRight=4;overflow=hidden;rotatable=0;points=[[0,0.5],[1,0.5]];portConstraint=eastwest;whiteSpace=wrap;html=1;" parent="_os8I4X1cZ1uzn5WCL8z-111" vertex="1">
          <mxGeometry y="52" width="140" height="26" as="geometry" />
        </mxCell>
        <mxCell id="_os8I4X1cZ1uzn5WCL8z-114" value="+ tittle : str" style="text;strokeColor=none;fillColor=none;align=left;verticalAlign=top;spacingLeft=4;spacingRight=4;overflow=hidden;rotatable=0;points=[[0,0.5],[1,0.5]];portConstraint=eastwest;whiteSpace=wrap;html=1;" parent="_os8I4X1cZ1uzn5WCL8z-111" vertex="1">
          <mxGeometry y="78" width="140" height="26" as="geometry" />
        </mxCell>
        <mxCell id="_os8I4X1cZ1uzn5WCL8z-115" value="+ description : text" style="text;strokeColor=none;fillColor=none;align=left;verticalAlign=top;spacingLeft=4;spacingRight=4;overflow=hidden;rotatable=0;points=[[0,0.5],[1,0.5]];portConstraint=eastwest;whiteSpace=wrap;html=1;" parent="_os8I4X1cZ1uzn5WCL8z-111" vertex="1">
          <mxGeometry y="104" width="140" height="26" as="geometry" />
        </mxCell>
        <mxCell id="_os8I4X1cZ1uzn5WCL8z-116" value="+ published_at : date" style="text;strokeColor=none;fillColor=none;align=left;verticalAlign=top;spacingLeft=4;spacingRight=4;overflow=hidden;rotatable=0;points=[[0,0.5],[1,0.5]];portConstraint=eastwest;whiteSpace=wrap;html=1;" parent="_os8I4X1cZ1uzn5WCL8z-111" vertex="1">
          <mxGeometry y="130" width="140" height="26" as="geometry" />
        </mxCell>
        <mxCell id="_os8I4X1cZ1uzn5WCL8z-117" value="+ duration : time" style="text;strokeColor=none;fillColor=none;align=left;verticalAlign=top;spacingLeft=4;spacingRight=4;overflow=hidden;rotatable=0;points=[[0,0.5],[1,0.5]];portConstraint=eastwest;whiteSpace=wrap;html=1;" parent="_os8I4X1cZ1uzn5WCL8z-111" vertex="1">
          <mxGeometry y="156" width="140" height="26" as="geometry" />
        </mxCell>
        <mxCell id="_os8I4X1cZ1uzn5WCL8z-209" style="edgeStyle=orthogonalEdgeStyle;rounded=0;orthogonalLoop=1;jettySize=auto;html=1;entryX=0.5;entryY=1;entryDx=0;entryDy=0;" parent="1" source="_os8I4X1cZ1uzn5WCL8z-118" target="_os8I4X1cZ1uzn5WCL8z-175" edge="1">
          <mxGeometry relative="1" as="geometry">
            <mxPoint x="290" y="780" as="targetPoint" />
          </mxGeometry>
        </mxCell>
        <mxCell id="_os8I4X1cZ1uzn5WCL8z-118" value="Concert" style="swimlane;fontStyle=0;childLayout=stackLayout;horizontal=1;startSize=26;fillColor=none;horizontalStack=0;resizeParent=1;resizeParentMax=0;resizeLast=0;collapsible=1;marginBottom=0;whiteSpace=wrap;html=1;" parent="1" vertex="1">
          <mxGeometry x="220" y="920" width="140" height="182" as="geometry" />
        </mxCell>
        <mxCell id="_os8I4X1cZ1uzn5WCL8z-119" value="+ id : str" style="text;strokeColor=none;fillColor=none;align=left;verticalAlign=top;spacingLeft=4;spacingRight=4;overflow=hidden;rotatable=0;points=[[0,0.5],[1,0.5]];portConstraint=eastwest;whiteSpace=wrap;html=1;" parent="_os8I4X1cZ1uzn5WCL8z-118" vertex="1">
          <mxGeometry y="26" width="140" height="26" as="geometry" />
        </mxCell>
        <mxCell id="_os8I4X1cZ1uzn5WCL8z-123" value="+ event_at : datetime" style="text;strokeColor=none;fillColor=none;align=left;verticalAlign=top;spacingLeft=4;spacingRight=4;overflow=hidden;rotatable=0;points=[[0,0.5],[1,0.5]];portConstraint=eastwest;whiteSpace=wrap;html=1;" parent="_os8I4X1cZ1uzn5WCL8z-118" vertex="1">
          <mxGeometry y="52" width="140" height="26" as="geometry" />
        </mxCell>
        <mxCell id="_os8I4X1cZ1uzn5WCL8z-120" value="+ url_ticket : str" style="text;strokeColor=none;fillColor=none;align=left;verticalAlign=top;spacingLeft=4;spacingRight=4;overflow=hidden;rotatable=0;points=[[0,0.5],[1,0.5]];portConstraint=eastwest;whiteSpace=wrap;html=1;" parent="_os8I4X1cZ1uzn5WCL8z-118" vertex="1">
          <mxGeometry y="78" width="140" height="26" as="geometry" />
        </mxCell>
        <mxCell id="_os8I4X1cZ1uzn5WCL8z-121" value="+ location&amp;nbsp; : str" style="text;strokeColor=none;fillColor=none;align=left;verticalAlign=top;spacingLeft=4;spacingRight=4;overflow=hidden;rotatable=0;points=[[0,0.5],[1,0.5]];portConstraint=eastwest;whiteSpace=wrap;html=1;" parent="_os8I4X1cZ1uzn5WCL8z-118" vertex="1">
          <mxGeometry y="104" width="140" height="26" as="geometry" />
        </mxCell>
        <mxCell id="_os8I4X1cZ1uzn5WCL8z-122" value="+ longitude : double" style="text;strokeColor=none;fillColor=none;align=left;verticalAlign=top;spacingLeft=4;spacingRight=4;overflow=hidden;rotatable=0;points=[[0,0.5],[1,0.5]];portConstraint=eastwest;whiteSpace=wrap;html=1;" parent="_os8I4X1cZ1uzn5WCL8z-118" vertex="1">
          <mxGeometry y="130" width="140" height="26" as="geometry" />
        </mxCell>
        <mxCell id="_os8I4X1cZ1uzn5WCL8z-124" value="+ latitude : double" style="text;strokeColor=none;fillColor=none;align=left;verticalAlign=top;spacingLeft=4;spacingRight=4;overflow=hidden;rotatable=0;points=[[0,0.5],[1,0.5]];portConstraint=eastwest;whiteSpace=wrap;html=1;" parent="_os8I4X1cZ1uzn5WCL8z-118" vertex="1">
          <mxGeometry y="156" width="140" height="26" as="geometry" />
        </mxCell>
        <mxCell id="_os8I4X1cZ1uzn5WCL8z-162" value="ArtistAlbum" style="swimlane;fontStyle=0;childLayout=stackLayout;horizontal=1;startSize=26;fillColor=none;horizontalStack=0;resizeParent=1;resizeParentMax=0;resizeLast=0;collapsible=1;marginBottom=0;whiteSpace=wrap;html=1;" parent="1" vertex="1">
          <mxGeometry x="500" y="503" width="140" height="104" as="geometry" />
        </mxCell>
        <mxCell id="_os8I4X1cZ1uzn5WCL8z-163" value="+ id : str" style="text;strokeColor=none;fillColor=none;align=left;verticalAlign=top;spacingLeft=4;spacingRight=4;overflow=hidden;rotatable=0;points=[[0,0.5],[1,0.5]];portConstraint=eastwest;whiteSpace=wrap;html=1;" parent="_os8I4X1cZ1uzn5WCL8z-162" vertex="1">
          <mxGeometry y="26" width="140" height="26" as="geometry" />
        </mxCell>
        <mxCell id="_os8I4X1cZ1uzn5WCL8z-164" value="+ album_id : str" style="text;strokeColor=none;fillColor=none;align=left;verticalAlign=top;spacingLeft=4;spacingRight=4;overflow=hidden;rotatable=0;points=[[0,0.5],[1,0.5]];portConstraint=eastwest;whiteSpace=wrap;html=1;" parent="_os8I4X1cZ1uzn5WCL8z-162" vertex="1">
          <mxGeometry y="52" width="140" height="26" as="geometry" />
        </mxCell>
        <mxCell id="_os8I4X1cZ1uzn5WCL8z-165" value="+ artist_id : str" style="text;strokeColor=none;fillColor=none;align=left;verticalAlign=top;spacingLeft=4;spacingRight=4;overflow=hidden;rotatable=0;points=[[0,0.5],[1,0.5]];portConstraint=eastwest;whiteSpace=wrap;html=1;" parent="_os8I4X1cZ1uzn5WCL8z-162" vertex="1">
          <mxGeometry y="78" width="140" height="26" as="geometry" />
        </mxCell>
        <mxCell id="_os8I4X1cZ1uzn5WCL8z-167" value="ArtistSong" style="swimlane;fontStyle=0;childLayout=stackLayout;horizontal=1;startSize=26;fillColor=none;horizontalStack=0;resizeParent=1;resizeParentMax=0;resizeLast=0;collapsible=1;marginBottom=0;whiteSpace=wrap;html=1;" parent="1" vertex="1">
          <mxGeometry x="30" y="240" width="140" height="104" as="geometry" />
        </mxCell>
        <mxCell id="_os8I4X1cZ1uzn5WCL8z-168" value="+ id : str" style="text;strokeColor=none;fillColor=none;align=left;verticalAlign=top;spacingLeft=4;spacingRight=4;overflow=hidden;rotatable=0;points=[[0,0.5],[1,0.5]];portConstraint=eastwest;whiteSpace=wrap;html=1;" parent="_os8I4X1cZ1uzn5WCL8z-167" vertex="1">
          <mxGeometry y="26" width="140" height="26" as="geometry" />
        </mxCell>
        <mxCell id="_os8I4X1cZ1uzn5WCL8z-169" value="+ song_id : str" style="text;strokeColor=none;fillColor=none;align=left;verticalAlign=top;spacingLeft=4;spacingRight=4;overflow=hidden;rotatable=0;points=[[0,0.5],[1,0.5]];portConstraint=eastwest;whiteSpace=wrap;html=1;" parent="_os8I4X1cZ1uzn5WCL8z-167" vertex="1">
          <mxGeometry y="52" width="140" height="26" as="geometry" />
        </mxCell>
        <mxCell id="_os8I4X1cZ1uzn5WCL8z-170" value="+ artist_id : str" style="text;strokeColor=none;fillColor=none;align=left;verticalAlign=top;spacingLeft=4;spacingRight=4;overflow=hidden;rotatable=0;points=[[0,0.5],[1,0.5]];portConstraint=eastwest;whiteSpace=wrap;html=1;" parent="_os8I4X1cZ1uzn5WCL8z-167" vertex="1">
          <mxGeometry y="78" width="140" height="26" as="geometry" />
        </mxCell>
        <mxCell id="_os8I4X1cZ1uzn5WCL8z-171" value="PlaylistSong" style="swimlane;fontStyle=0;childLayout=stackLayout;horizontal=1;startSize=26;fillColor=none;horizontalStack=0;resizeParent=1;resizeParentMax=0;resizeLast=0;collapsible=1;marginBottom=0;whiteSpace=wrap;html=1;" parent="1" vertex="1">
          <mxGeometry x="-800" y="136" width="140" height="104" as="geometry" />
        </mxCell>
        <mxCell id="_os8I4X1cZ1uzn5WCL8z-172" value="+ id : str" style="text;strokeColor=none;fillColor=none;align=left;verticalAlign=top;spacingLeft=4;spacingRight=4;overflow=hidden;rotatable=0;points=[[0,0.5],[1,0.5]];portConstraint=eastwest;whiteSpace=wrap;html=1;" parent="_os8I4X1cZ1uzn5WCL8z-171" vertex="1">
          <mxGeometry y="26" width="140" height="26" as="geometry" />
        </mxCell>
        <mxCell id="_os8I4X1cZ1uzn5WCL8z-173" value="+ playlist_id : str" style="text;strokeColor=none;fillColor=none;align=left;verticalAlign=top;spacingLeft=4;spacingRight=4;overflow=hidden;rotatable=0;points=[[0,0.5],[1,0.5]];portConstraint=eastwest;whiteSpace=wrap;html=1;" parent="_os8I4X1cZ1uzn5WCL8z-171" vertex="1">
          <mxGeometry y="52" width="140" height="26" as="geometry" />
        </mxCell>
        <mxCell id="_os8I4X1cZ1uzn5WCL8z-174" value="+ song_id : str" style="text;strokeColor=none;fillColor=none;align=left;verticalAlign=top;spacingLeft=4;spacingRight=4;overflow=hidden;rotatable=0;points=[[0,0.5],[1,0.5]];portConstraint=eastwest;whiteSpace=wrap;html=1;" parent="_os8I4X1cZ1uzn5WCL8z-171" vertex="1">
          <mxGeometry y="78" width="140" height="26" as="geometry" />
        </mxCell>
        <mxCell id="_os8I4X1cZ1uzn5WCL8z-175" value="ArtistConcert" style="swimlane;fontStyle=0;childLayout=stackLayout;horizontal=1;startSize=26;fillColor=none;horizontalStack=0;resizeParent=1;resizeParentMax=0;resizeLast=0;collapsible=1;marginBottom=0;whiteSpace=wrap;html=1;" parent="1" vertex="1">
          <mxGeometry x="220" y="680" width="140" height="104" as="geometry" />
        </mxCell>
        <mxCell id="_os8I4X1cZ1uzn5WCL8z-176" value="+ id : str" style="text;strokeColor=none;fillColor=none;align=left;verticalAlign=top;spacingLeft=4;spacingRight=4;overflow=hidden;rotatable=0;points=[[0,0.5],[1,0.5]];portConstraint=eastwest;whiteSpace=wrap;html=1;" parent="_os8I4X1cZ1uzn5WCL8z-175" vertex="1">
          <mxGeometry y="26" width="140" height="26" as="geometry" />
        </mxCell>
        <mxCell id="_os8I4X1cZ1uzn5WCL8z-177" value="+ consert_id : str" style="text;strokeColor=none;fillColor=none;align=left;verticalAlign=top;spacingLeft=4;spacingRight=4;overflow=hidden;rotatable=0;points=[[0,0.5],[1,0.5]];portConstraint=eastwest;whiteSpace=wrap;html=1;" parent="_os8I4X1cZ1uzn5WCL8z-175" vertex="1">
          <mxGeometry y="52" width="140" height="26" as="geometry" />
        </mxCell>
        <mxCell id="_os8I4X1cZ1uzn5WCL8z-178" value="+ artist_id : str" style="text;strokeColor=none;fillColor=none;align=left;verticalAlign=top;spacingLeft=4;spacingRight=4;overflow=hidden;rotatable=0;points=[[0,0.5],[1,0.5]];portConstraint=eastwest;whiteSpace=wrap;html=1;" parent="_os8I4X1cZ1uzn5WCL8z-175" vertex="1">
          <mxGeometry y="78" width="140" height="26" as="geometry" />
        </mxCell>
        <mxCell id="_os8I4X1cZ1uzn5WCL8z-179" value="UserArtist" style="swimlane;fontStyle=0;childLayout=stackLayout;horizontal=1;startSize=26;fillColor=none;horizontalStack=0;resizeParent=1;resizeParentMax=0;resizeLast=0;collapsible=1;marginBottom=0;whiteSpace=wrap;html=1;" parent="1" vertex="1">
          <mxGeometry x="-60" y="399" width="140" height="104" as="geometry" />
        </mxCell>
        <mxCell id="_os8I4X1cZ1uzn5WCL8z-180" value="+ id : str" style="text;strokeColor=none;fillColor=none;align=left;verticalAlign=top;spacingLeft=4;spacingRight=4;overflow=hidden;rotatable=0;points=[[0,0.5],[1,0.5]];portConstraint=eastwest;whiteSpace=wrap;html=1;" parent="_os8I4X1cZ1uzn5WCL8z-179" vertex="1">
          <mxGeometry y="26" width="140" height="26" as="geometry" />
        </mxCell>
        <mxCell id="_os8I4X1cZ1uzn5WCL8z-181" value="+ user_id : str" style="text;strokeColor=none;fillColor=none;align=left;verticalAlign=top;spacingLeft=4;spacingRight=4;overflow=hidden;rotatable=0;points=[[0,0.5],[1,0.5]];portConstraint=eastwest;whiteSpace=wrap;html=1;" parent="_os8I4X1cZ1uzn5WCL8z-179" vertex="1">
          <mxGeometry y="52" width="140" height="26" as="geometry" />
        </mxCell>
        <mxCell id="_os8I4X1cZ1uzn5WCL8z-182" value="+ artist_id : str" style="text;strokeColor=none;fillColor=none;align=left;verticalAlign=top;spacingLeft=4;spacingRight=4;overflow=hidden;rotatable=0;points=[[0,0.5],[1,0.5]];portConstraint=eastwest;whiteSpace=wrap;html=1;" parent="_os8I4X1cZ1uzn5WCL8z-179" vertex="1">
          <mxGeometry y="78" width="140" height="26" as="geometry" />
        </mxCell>
        <mxCell id="_os8I4X1cZ1uzn5WCL8z-183" value="UserSong" style="swimlane;fontStyle=0;childLayout=stackLayout;horizontal=1;startSize=26;fillColor=none;horizontalStack=0;resizeParent=1;resizeParentMax=0;resizeLast=0;collapsible=1;marginBottom=0;whiteSpace=wrap;html=1;" parent="1" vertex="1">
          <mxGeometry x="-370" y="170" width="140" height="104" as="geometry" />
        </mxCell>
        <mxCell id="_os8I4X1cZ1uzn5WCL8z-184" value="+ id : str" style="text;strokeColor=none;fillColor=none;align=left;verticalAlign=top;spacingLeft=4;spacingRight=4;overflow=hidden;rotatable=0;points=[[0,0.5],[1,0.5]];portConstraint=eastwest;whiteSpace=wrap;html=1;" parent="_os8I4X1cZ1uzn5WCL8z-183" vertex="1">
          <mxGeometry y="26" width="140" height="26" as="geometry" />
        </mxCell>
        <mxCell id="_os8I4X1cZ1uzn5WCL8z-185" value="+ user_id : str" style="text;strokeColor=none;fillColor=none;align=left;verticalAlign=top;spacingLeft=4;spacingRight=4;overflow=hidden;rotatable=0;points=[[0,0.5],[1,0.5]];portConstraint=eastwest;whiteSpace=wrap;html=1;" parent="_os8I4X1cZ1uzn5WCL8z-183" vertex="1">
          <mxGeometry y="52" width="140" height="26" as="geometry" />
        </mxCell>
        <mxCell id="_os8I4X1cZ1uzn5WCL8z-186" value="+ song_id : str" style="text;strokeColor=none;fillColor=none;align=left;verticalAlign=top;spacingLeft=4;spacingRight=4;overflow=hidden;rotatable=0;points=[[0,0.5],[1,0.5]];portConstraint=eastwest;whiteSpace=wrap;html=1;" parent="_os8I4X1cZ1uzn5WCL8z-183" vertex="1">
          <mxGeometry y="78" width="140" height="26" as="geometry" />
        </mxCell>
        <mxCell id="_os8I4X1cZ1uzn5WCL8z-215" value="" style="edgeStyle=orthogonalEdgeStyle;rounded=0;orthogonalLoop=1;jettySize=auto;html=1;" parent="1" source="_os8I4X1cZ1uzn5WCL8z-61" target="_os8I4X1cZ1uzn5WCL8z-187" edge="1">
          <mxGeometry relative="1" as="geometry">
            <mxPoint x="-370" y="451" as="sourcePoint" />
            <mxPoint x="-614" y="720" as="targetPoint" />
          </mxGeometry>
        </mxCell>
        <mxCell id="_os8I4X1cZ1uzn5WCL8z-187" value="UserPlaylist" style="swimlane;fontStyle=0;childLayout=stackLayout;horizontal=1;startSize=26;fillColor=none;horizontalStack=0;resizeParent=1;resizeParentMax=0;resizeLast=0;collapsible=1;marginBottom=0;whiteSpace=wrap;html=1;" parent="1" vertex="1">
          <mxGeometry x="-684" y="530" width="140" height="102" as="geometry" />
        </mxCell>
        <mxCell id="_os8I4X1cZ1uzn5WCL8z-188" value="+ id : str" style="text;strokeColor=none;fillColor=none;align=left;verticalAlign=top;spacingLeft=4;spacingRight=4;overflow=hidden;rotatable=0;points=[[0,0.5],[1,0.5]];portConstraint=eastwest;whiteSpace=wrap;html=1;" parent="_os8I4X1cZ1uzn5WCL8z-187" vertex="1">
          <mxGeometry y="26" width="140" height="24" as="geometry" />
        </mxCell>
        <mxCell id="_os8I4X1cZ1uzn5WCL8z-189" value="+ user_id : str" style="text;strokeColor=none;fillColor=none;align=left;verticalAlign=top;spacingLeft=4;spacingRight=4;overflow=hidden;rotatable=0;points=[[0,0.5],[1,0.5]];portConstraint=eastwest;whiteSpace=wrap;html=1;" parent="_os8I4X1cZ1uzn5WCL8z-187" vertex="1">
          <mxGeometry y="50" width="140" height="26" as="geometry" />
        </mxCell>
        <mxCell id="_os8I4X1cZ1uzn5WCL8z-190" value="+ playlist_id : str" style="text;strokeColor=none;fillColor=none;align=left;verticalAlign=top;spacingLeft=4;spacingRight=4;overflow=hidden;rotatable=0;points=[[0,0.5],[1,0.5]];portConstraint=eastwest;whiteSpace=wrap;html=1;" parent="_os8I4X1cZ1uzn5WCL8z-187" vertex="1">
          <mxGeometry y="76" width="140" height="26" as="geometry" />
        </mxCell>
        <mxCell id="_os8I4X1cZ1uzn5WCL8z-217" value="1" style="text;strokeColor=none;align=center;fillColor=none;html=1;verticalAlign=middle;whiteSpace=wrap;rounded=0;labelBackgroundColor=none;fontStyle=0" parent="1" vertex="1">
          <mxGeometry x="360" y="441" width="30" height="20" as="geometry" />
        </mxCell>
        <mxCell id="_os8I4X1cZ1uzn5WCL8z-218" value="M" style="text;strokeColor=none;align=center;fillColor=none;html=1;verticalAlign=middle;whiteSpace=wrap;rounded=0;labelBackgroundColor=none;fontStyle=1" parent="1" vertex="1">
          <mxGeometry x="470" y="530" width="30" height="20" as="geometry" />
        </mxCell>
        <mxCell id="_os8I4X1cZ1uzn5WCL8z-219" value="1" style="text;strokeColor=none;align=center;fillColor=none;html=1;verticalAlign=middle;whiteSpace=wrap;rounded=0;labelBackgroundColor=none;fontStyle=0" parent="1" vertex="1">
          <mxGeometry x="570" y="390" width="30" height="20" as="geometry" />
        </mxCell>
        <mxCell id="_os8I4X1cZ1uzn5WCL8z-220" value="M" style="text;strokeColor=none;align=center;fillColor=none;html=1;verticalAlign=middle;whiteSpace=wrap;rounded=0;labelBackgroundColor=none;fontStyle=1" parent="1" vertex="1">
          <mxGeometry x="570" y="480" width="30" height="20" as="geometry" />
        </mxCell>
        <mxCell id="_os8I4X1cZ1uzn5WCL8z-221" value="1" style="text;strokeColor=none;align=center;fillColor=none;html=1;verticalAlign=middle;whiteSpace=wrap;rounded=0;labelBackgroundColor=none;fontStyle=0" parent="1" vertex="1">
          <mxGeometry x="570" y="220" width="30" height="20" as="geometry" />
        </mxCell>
        <mxCell id="_os8I4X1cZ1uzn5WCL8z-222" value="M" style="text;strokeColor=none;align=center;fillColor=none;html=1;verticalAlign=middle;whiteSpace=wrap;rounded=0;labelBackgroundColor=none;fontStyle=1" parent="1" vertex="1">
          <mxGeometry x="40" y="80" width="30" height="20" as="geometry" />
        </mxCell>
        <mxCell id="_os8I4X1cZ1uzn5WCL8z-223" value="M" style="text;strokeColor=none;align=center;fillColor=none;html=1;verticalAlign=middle;whiteSpace=wrap;rounded=0;labelBackgroundColor=none;fontStyle=1" parent="1" vertex="1">
          <mxGeometry x="-5" y="254" width="30" height="20" as="geometry" />
        </mxCell>
        <mxCell id="_os8I4X1cZ1uzn5WCL8z-224" value="M" style="text;strokeColor=none;align=center;fillColor=none;html=1;verticalAlign=middle;whiteSpace=wrap;rounded=0;labelBackgroundColor=none;fontStyle=1" parent="1" vertex="1">
          <mxGeometry x="170" y="270" width="30" height="20" as="geometry" />
        </mxCell>
        <mxCell id="_os8I4X1cZ1uzn5WCL8z-225" value="1" style="text;strokeColor=none;align=center;fillColor=none;html=1;verticalAlign=middle;whiteSpace=wrap;rounded=0;labelBackgroundColor=none;fontStyle=0" parent="1" vertex="1">
          <mxGeometry x="290" y="330" width="30" height="20" as="geometry" />
        </mxCell>
        <mxCell id="_os8I4X1cZ1uzn5WCL8z-227" value="M" style="text;strokeColor=none;align=center;fillColor=none;html=1;verticalAlign=middle;whiteSpace=wrap;rounded=0;labelBackgroundColor=none;fontStyle=1" parent="1" vertex="1">
          <mxGeometry x="-610" y="910" width="30" height="20" as="geometry" />
        </mxCell>
        <mxCell id="_os8I4X1cZ1uzn5WCL8z-229" value="1" style="text;strokeColor=none;align=center;fillColor=none;html=1;verticalAlign=middle;whiteSpace=wrap;rounded=0;labelBackgroundColor=none;fontStyle=0" parent="1" vertex="1">
          <mxGeometry x="-610" y="970" width="30" height="20" as="geometry" />
        </mxCell>
        <mxCell id="_os8I4X1cZ1uzn5WCL8z-230" value="1" style="text;strokeColor=none;align=center;fillColor=none;html=1;verticalAlign=middle;whiteSpace=wrap;rounded=0;labelBackgroundColor=none;fontStyle=0" parent="1" vertex="1">
          <mxGeometry x="-410" y="483" width="30" height="20" as="geometry" />
        </mxCell>
        <mxCell id="_os8I4X1cZ1uzn5WCL8z-232" value="M" style="text;strokeColor=none;align=center;fillColor=none;html=1;verticalAlign=middle;whiteSpace=wrap;rounded=0;labelBackgroundColor=none;fontStyle=1" parent="1" vertex="1">
          <mxGeometry x="-500" y="780" width="30" height="20" as="geometry" />
        </mxCell>
        <mxCell id="_os8I4X1cZ1uzn5WCL8z-233" value="1" style="text;strokeColor=none;align=center;fillColor=none;html=1;verticalAlign=middle;whiteSpace=wrap;rounded=0;labelBackgroundColor=none;fontStyle=0" parent="1" vertex="1">
          <mxGeometry x="-714" y="810" width="30" height="20" as="geometry" />
        </mxCell>
        <mxCell id="_os8I4X1cZ1uzn5WCL8z-234" value="M" style="text;strokeColor=none;align=center;fillColor=none;html=1;verticalAlign=middle;whiteSpace=wrap;rounded=0;labelBackgroundColor=none;fontStyle=1" parent="1" vertex="1">
          <mxGeometry x="-760" y="250" width="30" height="20" as="geometry" />
        </mxCell>
        <mxCell id="_os8I4X1cZ1uzn5WCL8z-236" value="1" style="text;strokeColor=none;align=center;fillColor=none;html=1;verticalAlign=middle;whiteSpace=wrap;rounded=0;labelBackgroundColor=none;fontStyle=0" parent="1" vertex="1">
          <mxGeometry x="-30" y="178" width="30" height="20" as="geometry" />
        </mxCell>
        <mxCell id="_os8I4X1cZ1uzn5WCL8z-237" value="1" style="text;strokeColor=none;align=center;fillColor=none;html=1;verticalAlign=middle;whiteSpace=wrap;rounded=0;labelBackgroundColor=none;fontStyle=0" parent="1" vertex="1">
          <mxGeometry x="-30" y="10" width="30" height="20" as="geometry" />
        </mxCell>
        <mxCell id="_os8I4X1cZ1uzn5WCL8z-238" value="M" style="text;strokeColor=none;align=center;fillColor=none;html=1;verticalAlign=middle;whiteSpace=wrap;rounded=0;labelBackgroundColor=none;fontStyle=1" parent="1" vertex="1">
          <mxGeometry x="-760" y="100" width="30" height="20" as="geometry" />
        </mxCell>
        <mxCell id="_os8I4X1cZ1uzn5WCL8z-239" value="1" style="text;strokeColor=none;align=center;fillColor=none;html=1;verticalAlign=middle;whiteSpace=wrap;rounded=0;labelBackgroundColor=none;fontStyle=0" parent="1" vertex="1">
          <mxGeometry x="-194" y="774" width="30" height="20" as="geometry" />
        </mxCell>
        <mxCell id="_os8I4X1cZ1uzn5WCL8z-240" value="M" style="text;strokeColor=none;align=center;fillColor=none;html=1;verticalAlign=middle;whiteSpace=wrap;rounded=0;labelBackgroundColor=none;fontStyle=1" parent="1" vertex="1">
          <mxGeometry x="-274" y="774" width="30" height="20" as="geometry" />
        </mxCell>
        <mxCell id="_os8I4X1cZ1uzn5WCL8z-242" value="1" style="text;strokeColor=none;align=center;fillColor=none;html=1;verticalAlign=middle;whiteSpace=wrap;rounded=0;labelBackgroundColor=none;fontStyle=0" parent="1" vertex="1">
          <mxGeometry x="-300" y="530" width="30" height="20" as="geometry" />
        </mxCell>
        <mxCell id="_os8I4X1cZ1uzn5WCL8z-243" value="M" style="text;strokeColor=none;align=center;fillColor=none;html=1;verticalAlign=middle;whiteSpace=wrap;rounded=0;labelBackgroundColor=none;fontStyle=1" parent="1" vertex="1">
          <mxGeometry x="-340" y="680" width="30" height="20" as="geometry" />
        </mxCell>
        <mxCell id="_os8I4X1cZ1uzn5WCL8z-244" value="1" style="text;strokeColor=none;align=center;fillColor=none;html=1;verticalAlign=middle;whiteSpace=wrap;rounded=0;labelBackgroundColor=none;fontStyle=0" parent="1" vertex="1">
          <mxGeometry x="-340" y="902" width="30" height="20" as="geometry" />
        </mxCell>
        <mxCell id="_os8I4X1cZ1uzn5WCL8z-245" value="M" style="text;strokeColor=none;align=center;fillColor=none;html=1;verticalAlign=middle;whiteSpace=wrap;rounded=0;labelBackgroundColor=none;fontStyle=1" parent="1" vertex="1">
          <mxGeometry x="-340" y="950" width="30" height="20" as="geometry" />
        </mxCell>
        <mxCell id="_os8I4X1cZ1uzn5WCL8z-246" value="1" style="text;strokeColor=none;align=center;fillColor=none;html=1;verticalAlign=middle;whiteSpace=wrap;rounded=0;labelBackgroundColor=none;fontStyle=0" parent="1" vertex="1">
          <mxGeometry x="290" y="890" width="30" height="20" as="geometry" />
        </mxCell>
        <mxCell id="_os8I4X1cZ1uzn5WCL8z-247" value="M" style="text;strokeColor=none;align=center;fillColor=none;html=1;verticalAlign=middle;whiteSpace=wrap;rounded=0;labelBackgroundColor=none;fontStyle=1" parent="1" vertex="1">
          <mxGeometry x="290" y="794" width="30" height="20" as="geometry" />
        </mxCell>
        <mxCell id="_os8I4X1cZ1uzn5WCL8z-249" value="1" style="text;strokeColor=none;align=center;fillColor=none;html=1;verticalAlign=middle;whiteSpace=wrap;rounded=0;labelBackgroundColor=none;fontStyle=0" parent="1" vertex="1">
          <mxGeometry x="290" y="571" width="30" height="20" as="geometry" />
        </mxCell>
        <mxCell id="_os8I4X1cZ1uzn5WCL8z-250" value="M" style="text;strokeColor=none;align=center;fillColor=none;html=1;verticalAlign=middle;whiteSpace=wrap;rounded=0;labelBackgroundColor=none;fontStyle=1" parent="1" vertex="1">
          <mxGeometry x="290" y="650" width="30" height="20" as="geometry" />
        </mxCell>
        <mxCell id="_os8I4X1cZ1uzn5WCL8z-251" value="1" style="text;strokeColor=none;align=center;fillColor=none;html=1;verticalAlign=middle;whiteSpace=wrap;rounded=0;labelBackgroundColor=none;fontStyle=0" parent="1" vertex="1">
          <mxGeometry x="-224" y="441" width="30" height="20" as="geometry" />
        </mxCell>
        <mxCell id="_os8I4X1cZ1uzn5WCL8z-252" value="M" style="text;strokeColor=none;align=center;fillColor=none;html=1;verticalAlign=middle;whiteSpace=wrap;rounded=0;labelBackgroundColor=none;fontStyle=1" parent="1" vertex="1">
          <mxGeometry x="-100" y="441" width="30" height="20" as="geometry" />
        </mxCell>
        <mxCell id="_os8I4X1cZ1uzn5WCL8z-253" value="M" style="text;strokeColor=none;align=center;fillColor=none;html=1;verticalAlign=middle;whiteSpace=wrap;rounded=0;labelBackgroundColor=none;fontStyle=1" parent="1" vertex="1">
          <mxGeometry x="85" y="441" width="30" height="20" as="geometry" />
        </mxCell>
        <mxCell id="_os8I4X1cZ1uzn5WCL8z-255" value="1" style="text;strokeColor=none;align=center;fillColor=none;html=1;verticalAlign=middle;whiteSpace=wrap;rounded=0;labelBackgroundColor=none;fontStyle=0" parent="1" vertex="1">
          <mxGeometry x="180" y="441" width="30" height="20" as="geometry" />
        </mxCell>
        <mxCell id="_os8I4X1cZ1uzn5WCL8z-257" value="1" style="text;strokeColor=none;align=center;fillColor=none;html=1;verticalAlign=middle;whiteSpace=wrap;rounded=0;labelBackgroundColor=none;fontStyle=0" parent="1" vertex="1">
          <mxGeometry x="-300" y="360" width="30" height="20" as="geometry" />
        </mxCell>
        <mxCell id="_os8I4X1cZ1uzn5WCL8z-258" value="M" style="text;strokeColor=none;align=center;fillColor=none;html=1;verticalAlign=middle;whiteSpace=wrap;rounded=0;labelBackgroundColor=none;fontStyle=1" parent="1" vertex="1">
          <mxGeometry x="-300" y="282" width="30" height="20" as="geometry" />
        </mxCell>
        <mxCell id="_os8I4X1cZ1uzn5WCL8z-259" value="1" style="text;strokeColor=none;align=center;fillColor=none;html=1;verticalAlign=middle;whiteSpace=wrap;rounded=0;labelBackgroundColor=none;fontStyle=0" parent="1" vertex="1">
          <mxGeometry x="-140" y="110" width="30" height="20" as="geometry" />
        </mxCell>
        <mxCell id="_os8I4X1cZ1uzn5WCL8z-260" value="M" style="text;strokeColor=none;align=center;fillColor=none;html=1;verticalAlign=middle;whiteSpace=wrap;rounded=0;labelBackgroundColor=none;fontStyle=1" parent="1" vertex="1">
          <mxGeometry x="-300" y="140" width="30" height="20" as="geometry" />
        </mxCell>
        <mxCell id="_os8I4X1cZ1uzn5WCL8z-261" value="1" style="text;strokeColor=none;align=center;fillColor=none;html=1;verticalAlign=middle;whiteSpace=wrap;rounded=0;labelBackgroundColor=none;fontStyle=0" parent="1" vertex="1">
          <mxGeometry x="-410" y="430" width="30" height="20" as="geometry" />
        </mxCell>
        <mxCell id="_os8I4X1cZ1uzn5WCL8z-262" value="M" style="text;strokeColor=none;align=center;fillColor=none;html=1;verticalAlign=middle;whiteSpace=wrap;rounded=0;labelBackgroundColor=none;fontStyle=1" parent="1" vertex="1">
          <mxGeometry x="-610" y="503" width="30" height="20" as="geometry" />
        </mxCell>
        <mxCell id="_os8I4X1cZ1uzn5WCL8z-263" value="1" style="text;strokeColor=none;align=center;fillColor=none;html=1;verticalAlign=middle;whiteSpace=wrap;rounded=0;labelBackgroundColor=none;fontStyle=0" parent="1" vertex="1">
          <mxGeometry x="-610" y="700" width="30" height="20" as="geometry" />
        </mxCell>
        <mxCell id="_os8I4X1cZ1uzn5WCL8z-264" value="M" style="text;strokeColor=none;align=center;fillColor=none;html=1;verticalAlign=middle;whiteSpace=wrap;rounded=0;labelBackgroundColor=none;fontStyle=1" parent="1" vertex="1">
          <mxGeometry x="-610" y="632" width="30" height="20" as="geometry" />
        </mxCell>
      </root>
    </mxGraphModel>
  </diagram>
</mxfile>
